<?xml version="1.0" encoding="UTF-8" standalone="no"?>
<!-- Created with Inkscape (http://www.inkscape.org/) -->

<svg
   xmlns:dc="http://purl.org/dc/elements/1.1/"
   xmlns:cc="http://creativecommons.org/ns#"
   xmlns:rdf="http://www.w3.org/1999/02/22-rdf-syntax-ns#"
   xmlns:svg="http://www.w3.org/2000/svg"
   xmlns="http://www.w3.org/2000/svg"
   xmlns:sodipodi="http://sodipodi.sourceforge.net/DTD/sodipodi-0.dtd"
   xmlns:inkscape="http://www.inkscape.org/namespaces/inkscape"
   width="800"
   height="600"
   viewBox="0 0 211.66666 158.75"
   version="1.1"
   id="svg8"
   inkscape:version="0.92.3 (2405546, 2018-03-11)"
   sodipodi:docname="hexagonMMFAIR.svg">
  <defs
     id="defs2">
    <inkscape:perspective
       sodipodi:type="inkscape:persp3d"
       inkscape:vp_x="0 : 79.375 : 1"
       inkscape:vp_y="0 : 1000 : 0"
       inkscape:vp_z="211.66666 : 79.375 : 1"
       inkscape:persp3d-origin="105.83333 : 52.916667 : 1"
       id="perspective3721" />
  </defs>
  <sodipodi:namedview
     id="base"
     pagecolor="#ffffff"
     bordercolor="#666666"
     borderopacity="1.0"
     inkscape:pageopacity="0.0"
     inkscape:pageshadow="2"
     inkscape:zoom="0.98994949"
     inkscape:cx="502.41497"
     inkscape:cy="357.88453"
     inkscape:document-units="mm"
     inkscape:current-layer="layer1"
     showgrid="false"
     units="px"
     inkscape:window-width="2560"
     inkscape:window-height="1017"
     inkscape:window-x="-8"
     inkscape:window-y="-8"
     inkscape:window-maximized="1" />
  <metadata
     id="metadata5">
    <rdf:RDF>
      <cc:Work
         rdf:about="">
        <dc:format>image/svg+xml</dc:format>
        <dc:type
           rdf:resource="http://purl.org/dc/dcmitype/StillImage" />
        <dc:title></dc:title>
      </cc:Work>
    </rdf:RDF>
  </metadata>
  <g
     inkscape:label="Ebene 1"
     inkscape:groupmode="layer"
     id="layer1"
     transform="translate(0,-138.24998)">
    <path
       inkscape:connector-curvature="0"
       style="fill:#003f75;fill-opacity:1;stroke-width:0.27855918"
       clip-path="none"
       d="m 105.74083,140.56198 -66.868268,38.60695 v 77.21286 H 172.6091 v -77.21286 z"
       id="path3741" />
    <g
       id="g4625"
       style="fill:#1d5a8f;fill-opacity:1">
      <path
         id="path4598"
         d="M 172.6091,256.38179 H 38.872562 l 66.868268,38.60642 z"
         clip-path="none"
         style="fill:#1d5a8f;fill-opacity:1;stroke-width:0.27855918"
         inkscape:connector-curvature="0" />
      <path
         inkscape:connector-curvature="0"
         id="path4565"
         d="m 38.872562,256.38179 c 0.37786,-0.1665 1.41216,-0.31388 2.29844,-0.3275 0.88627,-0.0136 1.69437,-0.16241 1.79575,-0.33063 0.1014,-0.16823 1.15393,-0.41834 2.33899,-0.55582 1.18505,-0.13748 3.00484,-0.4786 4.04397,-0.75805 1.03912,-0.27945 2.33026,-0.58927 2.8692,-0.68847 0.53893,-0.0992 2.62577,-1.00345 4.63742,-2.00942 3.25521,-1.62784 4.06624,-2.23689 7.37289,-5.53671 2.04343,-2.03922 4.22543,-4.43137 4.84891,-5.31587 3.90319,-5.53734 9.13403,-15.30354 12.91178,-24.10681 2.92882,-6.82501 5.31265,-12.23318 6.67661,-15.14718 2.51024,-5.36291 4.72201,-9.81349 5.52595,-11.11943 0.46446,-0.7545 0.84448,-1.46291 0.84448,-1.57427 0,-0.49431 2.98641,-4.72452 4.42557,-6.26875 2.153108,-2.31028 3.871538,-3.19156 6.223348,-3.19156 3.90438,0 6.2596,2.23011 11.42771,10.82066 1.0291,1.71058 7.12063,14.47811 7.12411,14.93174 9.9e-4,0.15207 0.24593,0.75201 0.54396,1.33326 0.29802,0.58122 1.74756,3.83083 3.22121,7.22132 5.48277,12.61449 11.70868,24.20002 15.14399,28.18081 4.48784,5.2005 7.7058,8.00093 11.35691,9.88342 2.73257,1.40891 7.80242,2.87842 11.52887,3.34171 1.10048,0.13682 2.15544,0.34783 2.34438,0.46895 0.18893,0.12119 1.96662,0.39609 3.95039,0.61107 2.74957,0.29794 -12.76392,0.39671 -65.26749,0.41555 -38.685408,0.0138 -68.573248,-0.10801 -68.187348,-0.27802 z"
         style="fill:#1d5a8f;fill-opacity:1;stroke-width:0.34785926" />
    </g>
    <text
       xml:space="preserve"
       style="font-style:normal;font-weight:normal;font-size:29.70171356px;line-height:1.25;font-family:sans-serif;letter-spacing:0px;word-spacing:0px;fill:#000000;fill-opacity:1;stroke:none;stroke-width:0.74254286"
       x="40.416496"
       y="228.1707"
       id="text4552"><tspan
         sodipodi:role="line"
         id="tspan4550"
         x="40.416496"
         y="228.1707"
         style="font-style:normal;font-variant:normal;font-weight:bold;font-stretch:normal;font-family:Montserrat;-inkscape-font-specification:'Montserrat Bold';fill:#ffffff;fill-opacity:1;stroke-width:0.74254286">MMFAIR</tspan></text>
    <path
       style="fill:#ffffff;fill-opacity:1;stroke-width:0.0381096"
       d="m 105.50197,179.24906 c -0.10563,-0.0465 -0.23481,-0.19279 -0.28327,-0.32069 -0.0272,-0.0717 -0.0406,-0.87541 -0.0406,-2.42359 v -2.31631 l -0.38821,-0.047 c -1.02853,-0.12467 -1.91959,-0.47595 -2.5941,-1.02269 -0.83012,-0.67288 -1.35608,-1.79225 -1.51221,-3.21836 -0.11471,-1.04761 0.009,-1.32118 0.61293,-1.36287 l 0.29141,-0.0201 -0.18623,-0.30488 c -0.42731,-0.69955 -0.68985,-1.64032 -0.74486,-2.66909 -0.022,-0.4116 -0.0166,-0.47684 0.0535,-0.63511 0.10753,-0.24308 0.2279,-0.31214 0.58447,-0.33527 l 0.29369,-0.0191 -0.17427,-0.28583 c -0.44938,-0.73708 -0.70491,-1.65813 -0.75592,-2.72483 -0.0206,-0.42809 -0.0162,-0.46822 0.0672,-0.62793 0.14176,-0.27161 0.25367,-0.31441 0.80996,-0.30977 0.59733,0.005 1.23505,0.11252 1.81027,0.30521 0.24276,0.0814 0.44627,0.14339 0.45224,0.13795 0.006,-0.006 -0.0242,-0.10347 -0.0669,-0.21781 -0.30459,-0.81408 -0.31425,-1.83637 -0.0253,-2.68212 0.27622,-0.80856 0.84678,-1.70495 1.49011,-2.34103 l 0.28908,-0.28582 h 0.26485 0.26485 l 0.28909,0.28582 c 0.64333,0.63608 1.21389,1.53247 1.4901,2.34103 0.2889,0.84575 0.27924,1.86804 -0.0253,2.68212 -0.0427,0.11434 -0.0719,0.21381 -0.0647,0.22102 0.007,0.007 0.10375,-0.0212 0.21452,-0.0633 0.63921,-0.24289 1.36839,-0.37742 2.07741,-0.38328 0.52138,-0.004 0.63857,0.0424 0.77827,0.31004 0.0833,0.15971 0.0876,0.19985 0.0672,0.62793 -0.0509,1.06496 -0.30798,1.98965 -0.75873,2.72931 l -0.17146,0.28136 0.29369,0.0191 c 0.35657,0.0231 0.47696,0.0922 0.58448,0.33526 0.07,0.15827 0.0755,0.22352 0.0535,0.63511 -0.0611,1.1423 -0.34879,2.08834 -0.87835,2.88822 l -0.0693,0.1048 h 0.26551 c 0.29047,0 0.44293,0.0708 0.59543,0.2767 0.1966,0.26539 0.0829,1.49257 -0.22376,2.41613 -0.34836,1.04898 -0.88281,1.73806 -1.74932,2.25545 -0.51679,0.30857 -1.33236,0.56691 -2.07319,0.65669 l -0.38821,0.047 v 2.32002 c 0,2.50703 0.003,2.46596 -0.20522,2.65814 -0.0776,0.0716 -0.15081,0.0956 -0.31931,0.10446 -0.12023,0.007 -0.25291,-0.004 -0.29484,-0.022 z m -0.37532,-6.47639 c -0.0577,-0.62064 -0.34037,-1.40452 -0.66493,-1.84388 -0.22166,-0.30002 -0.54831,-0.57652 -0.893,-0.75584 -0.47888,-0.24914 -0.80119,-0.34383 -1.6262,-0.47779 l -0.12959,-0.021 0.0247,0.26004 c 0.07,0.73595 0.37111,1.51664 0.77091,1.99879 0.3211,0.38725 0.82935,0.70384 1.42618,0.88838 0.32958,0.1019 0.80635,0.20044 1.00585,0.20791 l 0.11028,0.004 z m 1.70117,0.20389 c 0.91953,-0.16036 1.63331,-0.52596 2.0839,-1.06741 0.34913,-0.41953 0.68893,-1.31197 0.7501,-1.97004 l 0.0243,-0.26207 -0.16756,0.0229 c -1.43343,0.19561 -2.2679,0.70558 -2.74345,1.67659 -0.20073,0.40987 -0.36313,0.9733 -0.40243,1.39616 -0.0284,0.3053 -0.0558,0.29298 0.45507,0.20387 z m -1.68788,-4.05201 c 0,-0.39533 -0.20042,-1.10245 -0.44964,-1.58648 -0.44298,-0.86033 -1.23522,-1.3632 -2.46576,-1.56513 -0.18864,-0.031 -0.35831,-0.0563 -0.37704,-0.0564 -0.0538,-2.9e-4 0.005,0.48508 0.10862,0.89269 0.11569,0.45597 0.41191,1.08034 0.6353,1.339 0.45131,0.52257 1.04233,0.84021 1.90066,1.02148 0.26531,0.0561 0.41476,0.0804 0.58116,0.0946 0.0529,0.005 0.0667,-0.0245 0.0667,-0.13972 z m 1.67963,0.084 c 0.93103,-0.15916 1.63648,-0.5197 2.09994,-1.07327 0.34131,-0.40765 0.68168,-1.30727 0.74259,-1.96264 l 0.0247,-0.2651 -0.20595,0.0261 c -0.37364,0.0474 -0.99187,0.21004 -1.29075,0.33956 -0.66002,0.28601 -1.10633,0.70714 -1.41139,1.33174 -0.20545,0.42061 -0.37171,0.99462 -0.40779,1.40776 -0.0261,0.29942 -0.0631,0.28331 0.44872,0.19583 z m -1.67963,-4.05509 c 0,-0.0842 -0.0361,-0.31965 -0.0802,-0.5232 -0.28998,-1.33839 -0.89587,-2.04997 -2.08464,-2.44823 -0.28291,-0.0948 -0.93005,-0.22845 -1.10855,-0.22897 -0.0426,-1.1e-4 -0.0483,0.0514 -0.0288,0.26056 0.0398,0.42841 0.20165,0.98611 0.40983,1.41234 0.16493,0.33767 0.24165,0.44515 0.50496,0.70744 0.23986,0.23892 0.3885,0.3492 0.65348,0.48482 0.39257,0.20094 0.82584,0.34476 1.23856,0.41113 0.1572,0.0253 0.31154,0.051 0.34299,0.0571 0.14152,0.0277 0.15244,0.0182 0.15244,-0.13306 z m 1.84234,0.0524 c 1.49075,-0.29019 2.31579,-1.11425 2.61628,-2.61316 0.0989,-0.49329 0.10008,-0.63976 0.005,-0.63976 -0.15927,0 -0.74276,0.11989 -1.04046,0.21379 -1.01609,0.32046 -1.64948,0.93159 -1.97052,1.9013 -0.13406,0.40489 -0.23334,0.86777 -0.23334,1.08787 v 0.15739 l 0.16198,-0.0247 c 0.0891,-0.0135 0.29647,-0.0508 0.46088,-0.0828 z m -1.01832,-3.24339 c 0.3082,-0.41738 0.34209,-0.47133 0.52401,-0.83417 0.2772,-0.55286 0.3765,-0.93887 0.3761,-1.46193 -4.4e-4,-0.52788 -0.0811,-0.86919 -0.32945,-1.39344 -0.17067,-0.36028 -0.56583,-0.97352 -0.71313,-1.10664 -0.0793,-0.0717 -0.0811,-0.0711 -0.1929,0.0611 -0.38021,0.44921 -0.77501,1.18593 -0.9132,1.70411 -0.10539,0.39512 -0.11206,1.02766 -0.0148,1.40182 0.0894,0.34407 0.27561,0.77732 0.47653,1.10898 0.17432,0.28775 0.53533,0.77744 0.57315,0.77744 0.0131,0 0.10923,-0.11575 0.2137,-0.25723 z"
       id="path4616"
       inkscape:connector-curvature="0" />
    <path
       style="fill:#ffffff;fill-opacity:1;stroke-width:0.13228756"
       d="m 106.79613,282.11219 5.82924,3.34682 -7.41371,4.2375 -5.792764,-3.34087 z"
       id="rect4691"
       inkscape:connector-curvature="0"
       sodipodi:nodetypes="ccccc" />
    <path
       style="fill:#ffffff;fill-opacity:0.78431374;stroke-width:0.13228756"
       d="m 100.23795,278.31302 5.82924,3.34682 -7.413696,4.2375 -5.79276,-3.34087 z"
       id="rect4691-2"
       inkscape:connector-curvature="0"
       sodipodi:nodetypes="ccccc" />
    <path
       style="fill:#ffffff;fill-opacity:0.58823532;stroke-width:0.13228756"
       d="m 93.62857,274.54994 5.82924,3.34682 -7.4137,4.2375 -5.792764,-3.34087 z"
       id="rect4691-2-8"
       inkscape:connector-curvature="0"
       sodipodi:nodetypes="ccccc" />
    <path
       style="fill:#ffffff;fill-opacity:1;stroke-width:0.13228756"
       d="m 114.8353,277.48062 5.82924,3.34682 -7.41371,4.2375 -5.79277,-3.34087 z"
       id="rect4691-9"
       inkscape:connector-curvature="0"
       sodipodi:nodetypes="ccccc" />
    <path
       style="fill:#ffffff;fill-opacity:0.78431374;stroke-width:0.13228756"
       d="m 108.27712,273.68145 5.82924,3.34682 -7.4137,4.2375 -5.79276,-3.34087 z"
       id="rect4691-2-3"
       inkscape:connector-curvature="0"
       sodipodi:nodetypes="ccccc" />
    <path
       style="fill:#ffffff;fill-opacity:0.58823532;stroke-width:0.13228756"
       d="m 101.66774,269.91837 5.82924,3.34682 -7.4137,4.2375 -5.792764,-3.34087 z"
       id="rect4691-2-8-2"
       inkscape:connector-curvature="0"
       sodipodi:nodetypes="ccccc" />
    <path
       style="fill:#ffffff;fill-opacity:1;stroke-width:0.13228756"
       d="m 122.85699,272.77182 5.82924,3.34682 -7.41371,4.2375 -5.79277,-3.34087 z"
       id="rect4691-9-2"
       inkscape:connector-curvature="0"
       sodipodi:nodetypes="ccccc" />
    <path
       style="fill:#ffffff;fill-opacity:0.78431374;stroke-width:0.13228756"
       d="m 116.29881,268.97265 5.82924,3.34682 -7.4137,4.2375 -5.79276,-3.34087 z"
       id="rect4691-2-3-3"
       inkscape:connector-curvature="0"
       sodipodi:nodetypes="ccccc" />
    <path
       style="fill:#ffffff;fill-opacity:0.58823532;stroke-width:0.13228756"
       d="m 109.68943,265.20957 5.82924,3.34682 -7.4137,4.2375 -5.79277,-3.34087 z"
       id="rect4691-2-8-2-1"
       inkscape:connector-curvature="0"
       sodipodi:nodetypes="ccccc" />
    <path
       style="fill:#ffffff;fill-opacity:0.39215687;stroke-width:0.13228756"
       d="m 87.17434,270.83109 5.82924,3.34682 -7.413696,4.2375 -5.792764,-3.34087 z"
       id="rect4691-2-8-8"
       inkscape:connector-curvature="0"
       sodipodi:nodetypes="ccccc" />
    <path
       style="fill:#ffffff;fill-opacity:0.39215687;stroke-width:0.13228756"
       d="m 95.21352,266.19952 5.82924,3.34682 -7.4137,4.2375 -5.79277,-3.34087 z"
       id="rect4691-2-8-2-7"
       inkscape:connector-curvature="0"
       sodipodi:nodetypes="ccccc" />
    <path
       style="fill:#ffffff;fill-opacity:0.39215687;stroke-width:0.13228756"
       d="m 103.23521,261.49072 5.82924,3.34682 -7.4137,4.2375 -5.79277,-3.34087 z"
       id="rect4691-2-8-2-1-9"
       inkscape:connector-curvature="0"
       sodipodi:nodetypes="ccccc" />
  </g>
</svg>
