<?xml version="1.0" standalone="no"?>
<!DOCTYPE svg PUBLIC "-//W3C//DTD SVG 20010904//EN"
 "http://www.w3.org/TR/2001/REC-SVG-20010904/DTD/svg10.dtd">
<svg version="1.0" xmlns="http://www.w3.org/2000/svg"
 width="1824.000000pt" height="1824.000000pt" viewBox="0 0 1824.000000 1824.000000"
 preserveAspectRatio="xMidYMid meet">
<metadata>
Created by potrace 1.11, written by Peter Selinger 2001-2013
</metadata>
<g transform="translate(0.000000,1824.000000) scale(0.100000,-0.100000)"
fill="#000000" stroke="none">
<path d="M5167 15958 l-3947 -2280 2 -4560 3 -4559 3947 -2279 3948 -2279
3950 2281 3950 2280 0 4558 0 4557 -3947 2279 c-2171 1253 -3949 2280 -3952
2280 -3 1 -1782 -1024 -3954 -2278z m4047 450 c78 -83 150 -219 167 -313 12
-65 6 -172 -12 -224 -6 -17 -9 -34 -7 -37 3 -2 40 5 83 16 43 11 114 21 157
23 69 2 80 0 100 -21 20 -20 23 -31 20 -97 -4 -93 -31 -205 -71 -282 l-29 -59
43 -12 c57 -15 67 -44 55 -154 -12 -100 -33 -174 -71 -250 l-29 -58 24 0 c14
0 38 -11 53 -24 26 -23 28 -28 26 -98 -7 -213 -105 -393 -260 -476 -63 -33
-194 -72 -245 -72 l-28 0 0 -279 c0 -256 -2 -281 -18 -302 -26 -31 -78 -31
-104 0 -16 21 -18 46 -18 302 l0 279 -28 0 c-51 0 -182 39 -245 72 -145 78
-228 215 -257 427 -15 110 -1 152 56 166 l42 10 -24 45 c-36 68 -63 163 -74
256 -12 113 -2 141 55 156 l43 12 -29 59 c-40 77 -67 189 -71 282 -3 66 0 77
20 97 20 20 31 23 100 21 42 -1 113 -12 156 -23 44 -11 81 -18 83 -16 2 2 -3
29 -12 62 -30 116 -16 217 50 350 56 114 161 234 205 234 22 0 42 -15 94 -72z
m-4908 -6232 l1038 -1725 43 72 c23 40 483 815 1021 1722 l979 1650 530 3 531
2 6 -1812 c3 -997 7 -2248 9 -2781 l2 -967 -607 0 -608 0 -1 1338 c-1 735 -4
1479 -8 1652 l-6 315 -807 -1355 -806 -1355 -295 -3 -294 -2 -809 1329 -809
1330 -3 -1624 -2 -1625 -605 0 -605 0 0 2780 0 2780 534 0 533 0 1039 -1724z
m7573 2 c569 -945 1037 -1718 1040 -1718 4 0 465 774 1026 1720 l1020 1720
526 0 527 0 6 -542 c3 -299 8 -1550 11 -2780 l5 -2238 -605 0 -605 0 -1 428
c-1 235 -5 981 -8 1658 l-6 1231 -810 -1361 -810 -1361 -295 -3 -295 -2 -805
1324 -805 1324 -3 -1619 -2 -1619 -610 0 -610 0 0 2780 0 2780 538 -2 537 -3
1034 -1717z m-2621 -6063 c171 -99 312 -182 312 -185 0 -3 -196 -118 -436
-255 -343 -196 -439 -247 -452 -239 -10 6 -165 95 -345 199 -212 122 -324 191
-315 196 7 4 204 118 438 253 l425 244 30 -17 c17 -9 171 -98 343 -196z m740
-425 c254 -146 338 -198 329 -206 -15 -14 -857 -494 -867 -494 -15 0 -673 386
-673 395 0 10 853 506 864 502 4 -1 160 -90 347 -197z m-1707 -120 c184 -106
335 -193 337 -195 2 -2 -195 -116 -437 -254 l-439 -252 -341 197 c-188 108
-341 199 -341 203 1 11 865 501 876 497 6 -2 161 -91 345 -196z m2481 -321
c183 -105 337 -194 341 -198 4 -4 -190 -121 -432 -259 l-439 -251 -341 197
c-188 108 -341 199 -341 202 0 9 852 499 867 500 7 0 162 -86 345 -191z
m-1722 -116 c296 -170 340 -198 326 -209 -10 -7 -207 -121 -440 -253 l-422
-241 -342 197 c-188 108 -342 199 -342 202 1 7 861 501 871 501 4 0 161 -89
349 -197z m-1710 -109 c187 -108 340 -198 338 -200 -2 -1 -200 -115 -440 -252
l-436 -250 -341 197 c-187 108 -341 198 -341 201 0 8 853 499 867 499 6 1 165
-87 353 -195z m4253 -249 c163 -93 297 -173 297 -177 0 -6 -848 -494 -869
-500 -9 -3 -690 383 -691 392 0 3 197 118 437 257 l437 251 46 -26 c25 -15
179 -103 343 -197z m-1768 -82 c190 -109 345 -200 345 -203 0 -7 -865 -500
-876 -500 -17 0 -677 385 -676 394 0 7 839 499 860 505 2 1 158 -88 347 -196z
m-1736 -99 c179 -103 332 -192 339 -199 10 -9 -77 -63 -423 -261 -240 -137
-438 -249 -440 -249 -9 0 -684 390 -685 395 0 9 853 499 869 499 8 1 161 -83
340 -185z m2519 -354 c254 -146 338 -198 329 -206 -16 -15 -857 -494 -867
-494 -14 0 -685 389 -683 396 2 11 857 502 869 501 6 -1 165 -90 352 -197z
m-1724 -99 c272 -156 335 -196 324 -206 -11 -10 -798 -463 -848 -488 -21 -11
-706 381 -692 395 19 19 857 498 867 495 6 -1 163 -89 349 -196z m762 -441
c175 -101 327 -188 337 -195 16 -11 -35 -43 -423 -265 l-440 -252 -345 199
c-189 109 -341 201 -337 205 23 23 860 497 873 494 8 -2 159 -85 335 -186z"/>
<path d="M9080 16255 c-64 -93 -84 -152 -85 -246 0 -81 2 -90 42 -170 24 -46
52 -95 63 -108 l20 -23 20 23 c11 13 39 62 63 108 40 80 42 89 42 170 0 72 -5
95 -27 143 -31 66 -85 148 -98 148 -5 0 -23 -20 -40 -45z"/>
<path d="M8660 15712 c0 -33 30 -132 54 -180 42 -82 109 -131 225 -166 30 -9
66 -16 79 -16 24 0 25 2 19 48 -19 163 -117 275 -280 318 -72 19 -97 18 -97
-4z"/>
<path d="M9464 15711 c-33 -9 -77 -27 -96 -39 -88 -54 -152 -161 -165 -276
l-6 -49 45 6 c187 26 305 143 333 330 7 47 7 47 -21 46 -16 0 -56 -8 -90 -18z"/>
<path d="M9512 15254 c-123 -25 -218 -89 -262 -174 -24 -46 -50 -137 -50 -172
0 -35 21 -36 111 -8 117 36 185 93 227 191 22 51 47 151 41 166 -3 7 -27 5
-67 -3z"/>
<path d="M8665 15214 c10 -70 51 -166 90 -211 40 -47 111 -87 190 -108 95 -24
98 -23 93 33 -19 175 -148 304 -329 328 l-52 7 8 -49z"/>
<path d="M8664 14750 c26 -193 143 -308 342 -337 l41 -5 -7 48 c-11 64 -43
147 -76 195 -46 67 -134 112 -278 144 l-29 6 7 -51z"/>
<path d="M9493 14780 c-158 -41 -223 -100 -274 -248 -10 -30 -19 -71 -19 -90
l0 -34 47 7 c106 16 204 69 253 137 45 62 100 249 73 247 -5 0 -40 -9 -80 -19z"/>
</g>
</svg>
