<?xml version="1.0" standalone="no"?>
<!DOCTYPE svg PUBLIC "-//W3C//DTD SVG 20010904//EN"
 "http://www.w3.org/TR/2001/REC-SVG-20010904/DTD/svg10.dtd">
<svg version="1.0" xmlns="http://www.w3.org/2000/svg"
 width="1824.000000pt" height="1824.000000pt" viewBox="0 0 1824.000000 1824.000000"
 preserveAspectRatio="xMidYMid meet">
<metadata>
Created by potrace 1.11, written by Peter Selinger 2001-2013
</metadata>
<g transform="translate(0.000000,1824.000000) scale(0.100000,-0.100000)"
fill="#000000" stroke="none">
<path d="M5170 15960 l-3945 -2278 0 -4562 0 -4561 3947 -2279 3948 -2279
3947 2279 3948 2279 0 4561 0 4562 -3940 2275 c-2167 1251 -3944 2276 -3950
2278 -5 2 -1785 -1021 -3955 -2275z m4040 453 c65 -73 122 -169 151 -253 27
-80 30 -221 5 -289 -9 -24 -15 -45 -13 -47 1 -2 32 6 67 17 38 12 107 23 166
26 l102 6 17 -27 c36 -55 0 -277 -61 -384 -29 -48 -25 -62 16 -62 21 0 35 -8
46 -25 36 -54 -5 -291 -67 -391 -25 -41 -25 -42 15 -50 61 -11 70 -31 63 -137
-6 -106 -41 -225 -88 -299 -77 -120 -215 -199 -386 -223 l-51 -7 -4 -282 c-3
-315 -4 -316 -68 -316 -64 0 -65 1 -68 316 l-3 282 -52 7 c-70 9 -188 49 -240
81 -140 87 -223 242 -234 441 -7 106 2 126 63 137 40 8 40 9 15 50 -62 100
-103 337 -67 391 11 17 25 25 46 25 41 0 45 14 16 62 -37 65 -67 174 -73 270
-5 73 -3 91 12 114 l17 27 102 -6 c60 -3 127 -14 166 -26 36 -11 66 -21 67
-21 1 0 -5 24 -14 53 -24 78 -21 207 6 287 29 84 86 180 151 253 46 51 56 57
90 57 34 0 44 -6 90 -57z m-5179 -6178 c600 -995 1093 -1813 1097 -1817 4 -3
492 812 1085 1813 l1079 1819 558 0 558 0 6 -2302 c4 -1267 8 -2585 9 -2931
l2 -627 -637 0 -638 0 -1 968 c-1 532 -5 1320 -8 1751 l-6 783 -857 -1438
-856 -1439 -309 -3 -309 -2 -855 1404 -854 1405 -3 -1714 -2 -1715 -640 0
-640 0 0 2930 0 2930 566 -2 565 -3 1090 -1810z m7995 11 c596 -990 1090
-1808 1096 -1818 11 -16 142 200 1092 1802 l1079 1820 557 0 558 0 6 -2147 c3
-1182 7 -2500 9 -2930 l2 -783 -637 0 -638 0 -1 1473 c-1 809 -4 1597 -8 1750
l-6 278 -856 -1438 -857 -1438 -309 -3 -309 -2 -854 1405 -855 1405 -3 -1715
-2 -1715 -640 0 -640 0 0 2930 0 2930 566 -2 567 -3 1083 -1799z m-2093 -6930
l338 -194 -430 -246 c-237 -135 -436 -246 -442 -246 -16 0 -679 383 -674 389
12 11 851 491 860 491 6 0 162 -87 348 -194z m760 -431 c177 -101 330 -190
340 -197 16 -12 -34 -42 -417 -262 -239 -136 -438 -246 -443 -244 -68 37 -651
374 -660 382 -9 8 96 73 415 258 235 135 431 247 435 247 4 1 153 -82 330
-184z m-1710 -124 c294 -168 336 -195 320 -206 -10 -6 -206 -119 -435 -250
l-417 -237 -336 193 c-184 106 -335 196 -335 199 0 7 853 500 860 497 3 -1
158 -89 343 -196z m2502 -333 c184 -106 335 -196 335 -199 0 -3 -188 -113
-417 -244 -230 -131 -425 -243 -434 -248 -12 -7 -98 38 -358 188 l-343 198 58
33 c33 18 226 130 429 248 204 118 376 215 383 215 7 1 163 -86 347 -191z
m-1720 -110 c184 -106 335 -195 335 -198 -1 -3 -196 -116 -434 -252 l-434
-247 -341 197 c-187 108 -339 198 -337 199 13 13 854 492 864 493 7 0 163 -87
347 -192z m-1756 -89 c174 -100 327 -188 339 -196 23 -14 9 -23 -411 -264
l-436 -248 -340 196 -341 196 433 248 c237 137 434 249 436 249 2 0 146 -82
320 -181z m2578 -386 c161 -92 289 -171 285 -175 -4 -4 -200 -117 -436 -252
l-430 -245 -30 18 c-17 10 -170 98 -339 196 -216 124 -305 181 -298 188 6 6
201 120 433 253 l423 243 50 -29 c27 -16 182 -105 342 -197z m-1782 -66 c185
-107 337 -198 337 -203 0 -9 -840 -493 -859 -494 -6 0 -163 87 -348 194 l-337
195 53 30 c30 17 225 129 434 250 209 121 381 220 382 220 1 1 153 -86 338
-192z m789 -456 c186 -106 334 -197 329 -201 -18 -15 -856 -490 -866 -490 -13
0 -677 382 -677 390 0 8 854 499 866 497 6 -1 162 -89 348 -196z"/>
<path d="M9087 16268 c-14 -18 -40 -62 -59 -98 -30 -60 -33 -72 -33 -160 0
-91 2 -100 38 -170 20 -41 48 -88 62 -105 l25 -30 25 30 c14 17 41 63 61 102
46 92 56 189 29 277 -18 57 -91 177 -112 184 -6 1 -23 -12 -36 -30z"/>
<path d="M8663 15688 c12 -119 90 -244 179 -289 54 -28 190 -61 201 -50 5 5 0
43 -12 92 -44 175 -128 247 -345 294 l-29 6 6 -53z"/>
<path d="M9504 15725 c-179 -39 -281 -152 -310 -340 l-6 -46 38 6 c62 11 128
31 171 53 57 30 128 113 153 180 24 62 38 162 24 161 -5 0 -37 -7 -70 -14z"/>
<path d="M8663 15215 c3 -31 20 -87 38 -126 54 -116 143 -181 288 -207 64 -12
68 -6 47 75 -48 188 -142 272 -345 307 l-34 6 6 -55z"/>
<path d="M9480 15249 c-90 -23 -168 -72 -208 -131 -37 -55 -69 -141 -74 -198
-3 -45 -3 -45 27 -42 17 1 60 11 97 22 143 43 236 159 255 322 7 56 10 55 -97
27z"/>
<path d="M8660 14765 c0 -76 57 -201 116 -257 55 -51 172 -97 248 -98 27 0 28
1 22 38 -13 69 -47 160 -77 201 -42 59 -121 107 -213 131 -44 11 -83 20 -88
20 -4 0 -8 -16 -8 -35z"/>
<path d="M9515 14790 c-141 -29 -243 -106 -284 -215 -25 -65 -44 -155 -36
-164 11 -11 135 18 186 44 96 47 147 112 183 234 19 66 21 111 4 110 -7 -1
-31 -5 -53 -9z"/>
</g>
</svg>
